<?xml version="1.0" standalone="no"?>
<!DOCTYPE svg PUBLIC "-//W3C//DTD SVG 20010904//EN"
 "http://www.w3.org/TR/2001/REC-SVG-20010904/DTD/svg10.dtd">
<svg version="1.0" xmlns="http://www.w3.org/2000/svg"
 width="122.000000pt" height="104.000000pt" viewBox="0 0 122.000000 104.000000"
 preserveAspectRatio="xMidYMid meet">
<metadata>
Created by potrace 1.16, written by Peter Selinger 2001-2019
</metadata>
<g transform="translate(0.000000,104.000000) scale(0.100000,-0.100000)"
fill="#000000" stroke="none">
<path d="M500 977 c0 -7 7 -23 17 -36 16 -24 16 -24 -13 -18 -64 15 -120 17
-134 7 -13 -9 -12 -13 8 -29 30 -26 28 -31 -12 -31 -35 0 -56 -14 -34 -23 15
-5 9 -8 -59 -26 -24 -7 -43 -17 -43 -24 0 -7 18 -25 40 -41 45 -34 41 -45 -19
-53 -23 -3 -44 -9 -47 -14 -2 -5 13 -20 36 -34 22 -14 40 -29 40 -34 0 -5 -20
-14 -45 -20 -25 -6 -45 -15 -45 -19 0 -5 11 -19 25 -32 36 -34 33 -51 -7 -39
-52 15 -56 -4 -14 -65 20 -29 35 -58 34 -63 -6 -20 62 -113 101 -137 23 -15
41 -30 41 -34 -1 -11 -98 -54 -109 -48 -21 14 -18 45 6 61 37 24 19 31 -27 10
-53 -24 -60 -14 -18 25 36 34 33 35 -24 5 -28 -13 -38 -25 -38 -42 0 -19 5
-23 30 -23 25 0 33 -6 44 -31 12 -28 11 -36 -9 -73 -24 -44 -41 -101 -28 -94
49 25 85 37 117 39 54 5 57 -16 4 -28 l-43 -11 55 -1 55 -1 2 50 c0 28 -3 50
-8 50 -5 0 -9 -6 -9 -14 0 -17 -15 -22 -94 -31 l-58 -7 18 32 c27 46 71 80
104 80 22 0 31 -7 45 -37 29 -62 69 -123 82 -123 7 0 -1 21 -19 50 -17 28 -29
52 -27 55 3 2 25 -9 49 -26 56 -38 135 -79 152 -79 22 0 -7 21 -88 64 -43 23
-79 46 -81 52 -2 6 8 16 22 22 21 10 25 9 25 -3 0 -10 10 -15 31 -15 18 0 28
4 24 10 -3 6 1 18 10 27 11 10 14 24 10 37 -4 12 -9 45 -12 74 -6 60 -27 81
-59 58 -16 -12 -23 -12 -47 1 -22 11 -32 12 -43 2 -17 -14 -19 -70 -3 -86 11
-11 5 -33 -10 -33 -15 0 -52 100 -46 121 4 12 15 19 31 19 13 0 24 5 24 10 0
6 -4 10 -10 10 -28 0 5 98 48 143 38 41 117 79 146 71 13 -3 27 -1 30 5 4 6
23 11 42 11 39 0 54 -21 36 -50 -9 -14 -5 -22 16 -43 53 -49 69 -52 108 -18
40 36 42 36 66 15 14 -14 21 -14 32 -4 25 20 29 50 12 69 -14 16 -15 23 -4 46
11 25 10 29 -20 56 -38 34 -58 36 -88 8 -21 -20 -23 -20 -47 -4 -25 16 -26 16
-65 -23 -32 -32 -43 -37 -62 -30 -15 5 -28 4 -38 -4 -8 -7 -25 -11 -38 -10
-28 4 -119 -53 -156 -97 -25 -28 -48 -86 -48 -118 0 -7 -8 -16 -17 -22 -13 -7
-17 -21 -15 -57 l2 -48 -34 33 c-21 20 -32 39 -29 50 3 10 -12 38 -34 67 -60
75 -59 74 -14 72 23 -1 44 1 47 5 4 3 -8 23 -25 44 l-31 37 43 16 c52 19 57
40 16 64 -35 21 -25 36 22 36 43 0 46 30 8 63 -18 15 -37 27 -41 27 -4 0 -8 5
-8 10 0 6 6 10 14 10 7 0 34 11 60 25 26 14 60 25 77 25 35 0 39 22 7 44 -34
24 -15 29 62 16 39 -7 74 -9 77 -6 3 3 -2 17 -11 31 -24 37 -4 33 105 -20 113
-55 134 -57 126 -15 -4 17 -3 30 1 30 11 0 51 -45 96 -108 27 -37 43 -51 55
-47 13 4 21 -6 34 -42 9 -27 17 -58 17 -70 0 -12 5 -25 10 -28 7 -4 8 -25 4
-53 -5 -38 -4 -45 7 -35 7 8 14 46 17 98 4 79 3 85 -15 85 -14 0 -23 11 -31
39 -7 21 -22 51 -34 67 l-23 28 -5 -29 -5 -30 -27 46 c-27 46 -99 119 -118
119 -6 0 -10 -13 -10 -29 0 -41 -42 -48 -86 -14 -34 25 -123 63 -149 63 -8 0
-15 -6 -15 -13z m404 -326 c14 -15 15 -23 5 -45 -10 -22 -9 -29 6 -46 27 -29
6 -49 -28 -27 -24 15 -26 15 -64 -18 l-40 -34 -34 28 -34 29 20 22 c16 18 17
23 5 30 -8 6 -18 10 -22 10 -15 0 -8 27 12 45 17 16 24 16 44 5 20 -10 28 -10
47 4 31 21 62 20 83 -3z m-442 -352 c15 -8 27 -8 44 2 31 16 37 9 36 -47 -1
-26 3 -53 8 -59 5 -6 5 -17 0 -25 -7 -11 -13 -12 -36 -2 -22 11 -29 10 -43 -2
-15 -14 -19 -14 -33 0 -12 13 -14 23 -7 47 5 20 5 35 -1 41 -13 13 -13 56 1
56 6 0 20 -5 31 -11z"/>
<path d="M970 523 c0 -6 -23 -27 -50 -47 -41 -29 -49 -40 -42 -54 5 -9 12 -34
15 -55 8 -49 23 -67 54 -67 22 0 24 -3 18 -27 -10 -44 -48 -104 -76 -126 -15
-10 -42 -20 -60 -21 -18 -1 -35 -8 -37 -15 -4 -11 4 -13 39 -8 28 5 39 4 29
-2 -8 -5 -51 -30 -95 -55 -44 -25 -72 -46 -62 -46 22 0 111 45 153 76 17 13
36 24 42 24 6 0 16 9 22 20 9 17 14 18 33 9 32 -17 77 -61 77 -76 0 -7 -10
-13 -22 -13 -29 -1 -110 -38 -85 -39 10 -1 27 4 38 9 27 15 92 16 97 2 2 -7
10 -12 18 -12 32 0 -28 88 -92 133 l-43 30 18 36 c10 20 24 60 31 89 14 61 10
197 -8 227 -6 11 -12 15 -12 8z"/>
<path d="M576 491 c-4 -5 -2 -12 4 -16 7 -4 6 -13 -1 -27 -25 -46 -9 -158 25
-180 20 -13 53 -8 77 11 21 17 24 28 25 90 l1 71 -41 24 c-53 30 -83 39 -90
27z"/>
</g>
</svg>
