<?xml version="1.0" standalone="no"?>
<!DOCTYPE svg PUBLIC "-//W3C//DTD SVG 20010904//EN"
 "http://www.w3.org/TR/2001/REC-SVG-20010904/DTD/svg10.dtd">
<svg version="1.0" xmlns="http://www.w3.org/2000/svg"
 width="190.000000pt" height="190.000000pt" viewBox="0 0 190.000000 190.000000"
 preserveAspectRatio="xMidYMid meet">
<metadata>
Created by potrace 1.16, written by Peter Selinger 2001-2019
</metadata>
<g transform="translate(0.000000,190.000000) scale(0.100000,-0.100000)"
fill="#000000" stroke="none">
<path d="M0 1120 l0 -780 183 0 c100 0 188 -4 196 -9 26 -16 -55 -26 -222 -26
l-157 0 0 -152 0 -153 906 0 c800 0 905 2 894 15 -23 28 -212 190 -288 248
l-77 57 -57 -6 c-31 -4 -69 -3 -85 1 -27 6 -27 7 -8 22 30 22 179 8 220 -20
26 -19 143 -121 316 -275 26 -23 50 -42 53 -42 3 0 6 400 6 888 l0 889 -22 11
c-17 8 -19 11 -7 11 20 1 29 21 29 67 l0 34 -940 0 -940 0 0 -780z m885 701
c33 -16 68 -35 79 -43 10 -8 29 -13 42 -10 19 3 24 11 24 33 0 18 5 29 14 29
17 0 114 -104 129 -139 l11 -26 4 28 c2 15 7 27 12 27 13 0 47 -61 55 -98 5
-23 11 -32 21 -28 7 3 16 1 20 -5 11 -18 5 -137 -9 -171 -10 -24 -13 -62 -9
-139 5 -108 -9 -179 -44 -236 -13 -20 -11 -23 20 -43 49 -30 101 -91 117 -136
7 -22 13 -66 14 -99 0 -48 -6 -69 -28 -108 -30 -52 -77 -87 -115 -87 -13 0
-36 12 -51 28 -25 25 -28 36 -33 116 -4 63 -11 93 -23 105 -15 15 -17 15 -25
0 -5 -9 -17 -26 -27 -38 l-18 -22 -65 30 -65 31 -3 -224 -2 -225 -35 -11 c-20
-7 -109 -12 -208 -13 l-172 -2 -27 -55 c-44 -87 -39 -94 64 -100 121 -8 122
-20 0 -20 -100 0 -156 -13 -149 -34 5 -14 85 -19 163 -11 56 6 71 13 160 77
l98 70 73 -4 c69 -3 74 -5 115 -44 39 -37 46 -41 73 -33 27 8 134 4 143 -6 9
-9 -74 -17 -119 -11 -53 7 -61 0 -28 -30 17 -15 40 -20 120 -22 54 -2 99 -1
99 3 0 4 -9 19 -20 35 -23 32 -83 206 -77 223 5 17 24 -22 59 -122 16 -48 41
-98 56 -114 35 -37 24 -43 -88 -51 -129 -11 -163 1 -201 69 -41 74 -50 79
-129 79 -62 0 -73 -3 -127 -38 -32 -22 -76 -53 -97 -69 -39 -31 -39 -31 -169
-32 -90 0 -131 4 -134 12 -2 6 9 26 24 45 26 30 83 157 83 185 0 6 -4 13 -10
15 -22 7 39 238 62 238 13 0 9 -21 -24 -117 -17 -51 -28 -96 -24 -100 4 -5 98
-8 209 -8 l202 0 6 30 c9 39 11 390 3 398 -3 3 -17 -7 -31 -24 -14 -16 -31
-29 -38 -29 -28 0 -121 127 -171 233 -12 25 -24 37 -38 37 -33 0 -81 -34 -105
-75 l-22 -38 32 7 c17 3 44 6 60 6 16 0 38 9 49 20 11 11 22 20 25 20 2 0 4
-21 3 -46 -2 -43 0 -48 55 -98 51 -47 57 -57 57 -92 0 -54 -16 -103 -42 -131
-44 -47 -170 -21 -217 46 -58 81 -68 206 -25 302 33 73 25 112 -23 117 -39 4
-52 32 -24 50 17 12 18 16 6 40 -7 15 -20 50 -28 77 -9 28 -29 89 -46 137 -38
108 -43 151 -18 156 25 5 67 -6 67 -18 0 -6 -14 -10 -31 -10 -30 0 -31 -2 -25
-31 3 -17 22 -73 41 -125 19 -51 40 -117 46 -146 6 -29 13 -54 14 -56 2 -2 13
2 25 8 34 18 33 6 -2 -30 -31 -31 -32 -32 -8 -25 14 4 37 14 53 22 23 11 27
11 27 0 0 -8 -11 -19 -25 -25 -22 -10 -24 -14 -13 -37 6 -14 14 -24 18 -23 3
2 27 12 53 23 26 11 47 23 47 26 0 4 -18 18 -39 32 -45 30 -102 107 -106 143
-1 14 -11 35 -22 47 -11 12 -27 34 -37 50 -15 24 -15 28 -1 33 8 3 28 1 45 -4
37 -13 38 -3 4 37 -31 37 -26 47 26 56 22 4 40 10 40 15 0 4 -18 19 -40 34
-23 15 -38 31 -35 36 3 5 26 12 50 16 29 4 45 11 45 20 0 8 -3 14 -7 14 -5 0
-23 13 -42 29 l-35 28 25 13 c13 8 38 16 54 20 21 4 29 11 27 23 -2 14 5 17
38 17 46 0 49 5 18 29 -48 39 11 50 126 25 29 -7 29 -7 13 17 -40 56 -4 64 88
20z"/>
<path d="M824 1798 c9 -12 16 -26 16 -31 0 -9 -84 -2 -140 10 l-25 6 28 -30
c30 -32 27 -43 -12 -43 -15 0 -37 -7 -50 -16 -13 -9 -42 -22 -65 -29 l-41 -12
48 -33 c26 -19 47 -37 47 -41 0 -13 -27 -29 -66 -37 l-39 -8 33 -17 c42 -23
41 -44 -5 -64 -51 -20 -50 -19 -18 -53 38 -39 29 -65 -20 -56 -19 4 -35 3 -35
-2 0 -5 20 -34 44 -66 27 -34 43 -63 39 -72 -5 -14 32 -64 47 -64 3 0 4 15 2
34 -3 25 2 40 17 55 12 12 21 28 21 36 0 25 29 88 53 114 35 38 137 100 153
94 9 -3 26 0 38 7 17 9 29 9 44 1 17 -9 23 -7 36 14 9 14 28 32 41 41 24 16
27 15 45 -1 18 -17 21 -16 50 9 l32 26 39 -27 c39 -29 47 -50 29 -83 -8 -15
-6 -21 10 -30 26 -14 25 -23 -3 -56 -23 -26 -24 -26 -49 -10 -26 17 -27 16
-57 -13 -18 -17 -34 -31 -37 -31 -12 0 -51 24 -76 48 -22 20 -25 28 -17 45 8
13 8 22 0 30 -15 15 -71 19 -71 6 0 -8 -11 -9 -31 -5 -24 5 -44 -1 -85 -24
-65 -38 -100 -78 -114 -131 -10 -34 -9 -44 5 -59 15 -17 15 -19 -14 -25 -27
-6 -31 -11 -31 -38 0 -42 37 -104 53 -88 8 8 8 14 -1 23 -17 17 -15 73 4 89
13 10 20 10 42 -3 22 -14 29 -14 47 -2 33 22 58 -2 61 -59 1 -25 5 -55 9 -67
11 -34 -16 -80 -45 -80 -14 0 -31 5 -36 10 -6 6 -18 8 -28 4 -15 -6 -15 -8 -1
-24 8 -9 44 -31 80 -49 36 -18 74 -44 84 -57 l19 -24 98 56 c121 69 123 71 78
66 -28 -3 -35 -1 -32 9 3 8 20 15 38 17 42 4 85 34 105 72 20 39 19 47 -4 26
-19 -17 -20 -17 -31 4 -9 16 -9 25 1 36 15 18 39 18 39 -1 0 -20 16 -19 24 1
9 22 9 22 -24 29 -25 5 -31 14 -40 48 -6 23 -15 54 -19 69 -9 29 4 46 62 83
17 11 26 24 22 33 -3 9 0 12 9 9 11 -4 15 6 18 41 3 26 1 51 -4 57 -4 5 -8 17
-8 27 0 17 -28 109 -37 118 -2 2 -8 -2 -12 -9 -6 -10 -15 -5 -34 20 -15 19
-45 58 -67 87 -46 59 -62 66 -53 22 5 -26 3 -30 -16 -30 -12 0 -63 20 -113 45
-106 52 -127 56 -104 23z m117 -470 c53 -30 73 -48 51 -48 -5 0 -7 -24 -4 -52
3 -43 0 -58 -18 -80 -22 -29 -56 -36 -90 -18 -27 14 -43 101 -29 152 5 22 8
46 5 53 -5 14 2 25 17 25 5 0 36 -15 68 -32z"/>
<path d="M1102 1513 c-19 -14 -26 -14 -48 -3 -22 12 -27 11 -47 -9 l-22 -22
24 -18 c23 -17 23 -19 7 -43 -16 -25 -16 -27 10 -47 35 -27 40 -27 81 10 34
29 36 29 60 14 34 -22 55 -5 29 24 -13 14 -16 28 -11 51 12 55 -33 78 -83 43z"/>
<path d="M1200 975 c0 -8 -7 -15 -15 -15 -8 0 -36 -15 -62 -34 -27 -18 -72
-46 -100 -60 -29 -14 -53 -28 -53 -31 0 -6 76 -45 87 -45 5 0 23 24 41 53 17
28 43 66 57 82 22 27 24 28 25 10 0 -12 -5 -26 -12 -33 -9 -9 -9 -15 0 -24 9
-9 25 -7 69 7 32 11 62 22 67 27 5 4 -7 23 -26 43 -37 36 -78 47 -78 20z"/>
<path d="M548 838 c-51 -17 -58 -23 -58 -46 2 -108 109 -225 189 -207 58 12
95 89 77 159 -6 25 -116 117 -139 115 -6 0 -38 -10 -69 -21z"/>
<path d="M1245 805 c-54 -33 -65 -51 -65 -106 0 -53 29 -99 61 -99 68 0 118
73 119 173 l0 57 -37 0 c-22 0 -55 -11 -78 -25z"/>
</g>
</svg>
